<svg width="42" height="47" viewBox="0 0 42 47" fill="none" xmlns="http://www.w3.org/2000/svg">
<path d="M42 37.3333C39.0616 41.2511 34.9651 44.1451 30.2906 45.6053C25.6161 47.0655 20.6006 47.0179 15.9547 45.4693C11.3087 43.9206 7.26783 40.9494 4.40435 36.9766C1.54087 33.0037 -7.75353e-10 28.2306 -6.40854e-10 23.3333C-5.06349e-10 18.4361 1.54087 13.663 4.40435 9.69009C7.26783 5.71723 11.3087 2.74604 15.9547 1.19739C20.6006 -0.351259 25.6161 -0.398853 30.2906 1.06135C34.9651 2.52155 39.0616 5.41553 42 9.33333L35.63 9.33333C32.9357 6.95721 29.6131 5.409 26.0607 4.87447C22.5083 4.33994 18.8772 4.8418 15.603 6.31983C12.3288 7.79786 9.55061 10.1893 7.60184 13.2071C5.65307 16.2249 4.61649 19.741 4.61649 23.3333C4.61649 26.9257 5.65307 30.4417 7.60184 33.4596C9.55061 36.4774 12.3288 38.8688 15.603 40.3468C18.8772 41.8249 22.5083 42.3267 26.0607 41.7922C29.6131 41.2577 32.9357 39.7094 35.63 37.3333L42 37.3333Z" fill="black"/>
<mask id="path-2-inside-1_4_36" fill="white">
<path fill-rule="evenodd" clip-rule="evenodd" d="M28.6763 32.9915C28.2995 32.6035 28.2995 31.9863 28.6763 31.5983L35.191 24.8889L15.5554 24.8889L15.5554 21.7778L35.191 21.7778L28.6763 15.0684C28.2995 14.6804 28.2995 14.0632 28.6763 13.6752L29.1539 13.1833C29.5466 12.7788 30.196 12.7788 30.5887 13.1833L39.7679 22.6367C40.1446 23.0247 40.1446 23.642 39.7679 24.03L30.5887 33.4834C30.196 33.8879 29.5466 33.8879 29.1539 33.4834L28.6763 32.9915Z"/>
</mask>
<path fill-rule="evenodd" clip-rule="evenodd" d="M28.6763 32.9915C28.2995 32.6035 28.2995 31.9863 28.6763 31.5983L35.191 24.8889L15.5554 24.8889L15.5554 21.7778L35.191 21.7778L28.6763 15.0684C28.2995 14.6804 28.2995 14.0632 28.6763 13.6752L29.1539 13.1833C29.5466 12.7788 30.196 12.7788 30.5887 13.1833L39.7679 22.6367C40.1446 23.0247 40.1446 23.642 39.7679 24.03L30.5887 33.4834C30.196 33.8879 29.5466 33.8879 29.1539 33.4834L28.6763 32.9915Z" fill="black"/>
<path d="M28.6763 31.5983L100.42 101.261L100.42 101.261L28.6763 31.5983ZM28.6763 32.9915L100.42 -36.6708L100.42 -36.6709L28.6763 32.9915ZM35.191 24.8889L106.935 94.5513L271.675 -75.1111L35.191 -75.1111L35.191 24.8889ZM15.5554 24.8889L-84.4446 24.8889L-84.4446 124.889L15.5554 124.889L15.5554 24.8889ZM15.5554 21.7778L15.5554 -78.2222L-84.4446 -78.2222L-84.4446 21.7778L15.5554 21.7778ZM35.191 21.7778L35.191 121.778L271.675 121.778L106.935 -47.8847L35.191 21.7778ZM28.6763 15.0684L-43.0673 84.7308L-43.0673 84.7308L28.6763 15.0684ZM28.6763 13.6752L-43.0673 -55.9873L-43.0673 -55.9873L28.6763 13.6752ZM29.1539 13.1833L100.897 82.8458L100.897 82.8458L29.1539 13.1833ZM30.5887 13.1833L102.332 -56.4791L102.332 -56.4791L30.5887 13.1833ZM39.7679 22.6367L-31.9757 92.2992L-31.9756 92.2993L39.7679 22.6367ZM39.7679 24.03L-31.9757 -45.6325L-31.9757 -45.6325L39.7679 24.03ZM30.5887 33.4834L-41.1549 -36.1791L-41.1549 -36.1791L30.5887 33.4834ZM29.1539 33.4834L-42.5899 103.146L-42.5898 103.146L29.1539 33.4834ZM-43.0672 -38.0643C-81.1194 1.1246 -81.1192 63.4652 -43.0674 102.654L100.42 -36.6709C137.718 1.74177 137.718 62.848 100.42 101.261L-43.0672 -38.0643ZM-36.5526 -44.7735L-43.0673 -38.0642L100.42 101.261L106.935 94.5513L-36.5526 -44.7735ZM35.191 -75.1111L15.5554 -75.1111L15.5554 124.889L35.191 124.889L35.191 -75.1111ZM115.555 24.8889L115.555 21.7778L-84.4446 21.7778L-84.4446 24.8889L115.555 24.8889ZM15.5554 121.778L35.191 121.778L35.191 -78.2222L15.5554 -78.2222L15.5554 121.778ZM-43.0673 84.7308L-36.5526 91.4402L106.935 -47.8847L100.42 -54.594L-43.0673 84.7308ZM-43.0673 -55.9873C-81.1193 -16.7985 -81.1193 45.5421 -43.0673 84.7308L100.42 -54.594C137.718 -16.1813 137.718 44.9249 100.42 83.3376L-43.0673 -55.9873ZM-42.5897 -56.4792L-43.0673 -55.9873L100.42 83.3377L100.897 82.8458L-42.5897 -56.4792ZM102.332 -56.4791C62.6628 -97.3338 -2.92035 -97.3336 -42.5897 -56.4791L100.897 82.8458C62.0136 122.891 -2.27088 122.891 -41.1549 82.8458L102.332 -56.4791ZM111.511 -47.0257L102.332 -56.4791L-41.1549 82.8458L-31.9757 92.2992L111.511 -47.0257ZM111.511 93.6924C149.563 54.5037 149.564 -7.83701 111.511 -47.0258L-31.9756 92.2993C-69.2742 53.8865 -69.2741 -7.2198 -31.9757 -45.6325L111.511 93.6924ZM102.332 103.146L111.511 93.6924L-31.9757 -45.6325L-41.1549 -36.1791L102.332 103.146ZM-42.5898 103.146C-2.9203 144 62.6629 144 102.332 103.146L-41.1549 -36.1791C-2.27096 -76.2247 62.0135 -76.2247 100.897 -36.1791L-42.5898 103.146ZM-43.0674 102.654L-42.5899 103.146L100.898 -36.179L100.42 -36.6708L-43.0674 102.654Z" fill="black" mask="url(#path-2-inside-1_4_36)"/>
</svg>
